<svg width="200" height="200" viewBox="0 0 200 200" fill="none" xmlns="http://www.w3.org/2000/svg">
<g clip-path="url(#clip0_134_30)">
<rect width="200" height="200" fill="#FF0000"/>
<path d="M28.5441 190L7.77424 82.0871H35.2416L44.4225 155.384L53.1518 82.0871H80.243L89.1981 155.158L98.0779 82.0871H124.868L104.173 190H74.9752L66.2459 118.811L57.5918 190H28.5441ZM128.631 190V82.0871H188.382V103.308H155.571V125.132H181.157V145.902H155.571V168.779H188.532V190H128.631Z" fill="black"/>
<path d="M12.392 37.896C17.832 34.984 18.184 31.208 20.712 23.976C21.608 21.352 23.272 16.648 27.464 15.336H20.456L20.68 15.016H43.624C45.768 12.936 48.136 11.592 51.016 11.592C52.008 11.592 53 11.752 53.864 12.008L53.736 12.36C52.904 12.072 51.976 11.912 51.016 11.912C40.136 11.912 36.488 32.168 23.08 36.84C22.408 37.32 21.672 37.8 20.872 38.312L20.712 37.896C26.088 34.984 26.504 31.208 29.032 23.976C29.256 23.336 29.544 22.536 29.896 21.672C25.736 27.944 21.352 34.216 14.792 36.84C14.12 37.32 13.352 37.8 12.552 38.312L12.392 37.896ZM16.008 35.912C22.536 32.712 26.824 25.704 31.144 19.208C32.2 17.512 33.704 15.944 35.848 15.336H29.448C25.16 15.336 24.168 20.2 22.632 25.096C20.872 30.696 19.08 33.448 16.008 35.912ZM24.136 36.072C33.032 32.2 37.48 21.192 43.304 15.336H37.576C33.48 15.336 32.488 20.2 30.952 25.096C29.16 30.824 27.336 33.576 24.136 36.072ZM36.149 37.224C34.837 37.224 34.613 35.912 34.613 34.952C34.613 32.904 35.477 31.336 36.821 29.192L38.453 26.6L38.389 26.408H37.045C37.045 26.312 37.077 26.216 37.205 26.12H40.789L40.853 26.44L38.293 30.472C35.509 34.824 35.189 35.4 35.189 36.104C35.189 36.648 35.541 36.968 36.149 36.968C37.621 36.968 38.773 35.208 40.277 32.872L41.333 31.24C41.461 31.176 41.589 31.176 41.653 31.24L40.533 32.968C39.125 35.144 37.781 37.224 36.149 37.224ZM41.621 20.616L43.189 18.28H45.109L43.541 20.616H41.621ZM41.817 37.224C40.409 37.224 39.801 36.136 39.801 34.6C39.801 32.872 40.601 31.272 41.785 29.224C42.393 28.168 43.929 25.576 45.561 23.016C48.441 18.504 51.545 14.28 53.369 14.28C53.849 14.28 54.201 14.568 54.201 15.272C54.201 18.312 47.417 25.896 42.937 30.792C41.049 33.384 40.505 34.6 40.505 35.72C40.505 36.488 40.793 36.968 41.785 36.968C43.481 36.968 45.113 35.528 46.937 32.68L47.865 31.24C47.993 31.144 48.121 31.144 48.185 31.24L47.257 32.68C45.561 35.304 43.705 37.224 41.817 37.224ZM42.649 30.6L42.745 30.632C47.481 25.48 53.945 18.216 53.945 15.272C53.945 14.792 53.785 14.536 53.529 14.536C52.633 14.536 50.937 17.288 47.097 23.432L42.649 30.6ZM48.3333 37.224C46.9253 37.224 46.3173 36.136 46.3173 34.6C46.3173 32.872 47.1173 31.272 48.3013 29.224C48.9093 28.168 50.4453 25.576 52.0773 23.016C54.9573 18.504 58.0613 14.28 59.8853 14.28C60.3653 14.28 60.7173 14.568 60.7173 15.272C60.7173 18.312 53.9333 25.896 49.4533 30.792C47.5653 33.384 47.0213 34.6 47.0213 35.72C47.0213 36.488 47.3093 36.968 48.3013 36.968C49.9973 36.968 51.6293 35.528 53.4533 32.68L54.3813 31.24C54.5093 31.144 54.6373 31.144 54.7013 31.24L53.7733 32.68C52.0773 35.304 50.2213 37.224 48.3333 37.224ZM49.1653 30.6L49.2613 30.632C53.9973 25.48 60.4613 18.216 60.4613 15.272C60.4613 14.792 60.3013 14.536 60.0453 14.536C59.1493 14.536 57.4533 17.288 53.6133 23.432L49.1653 30.6ZM54.229 37.224C52.917 37.224 52.693 35.912 52.693 34.952C52.693 32.904 53.557 31.336 54.901 29.192L56.533 26.6L56.469 26.408H55.125C55.125 26.312 55.157 26.216 55.285 26.12H58.869L58.933 26.44L56.373 30.472C53.589 34.824 53.269 35.4 53.269 36.104C53.269 36.648 53.621 36.968 54.229 36.968C55.701 36.968 56.853 35.208 58.357 32.872L59.413 31.24C59.541 31.176 59.669 31.176 59.733 31.24L58.613 32.968C57.205 35.144 55.861 37.224 54.229 37.224ZM59.701 20.616L61.269 18.28H63.189L61.621 20.616H59.701ZM65.561 37.32C64.825 37.32 64.089 36.904 64.089 35.272C64.089 34.472 64.249 33.672 64.441 32.968H64.281C62.297 35.912 60.921 37.32 59.737 37.32C58.585 37.32 57.945 35.944 57.945 34.44C57.945 32.968 58.553 31.432 59.353 30.184C61.049 27.528 63.833 25.8 66.841 25.8C67.641 25.8 68.153 25.864 69.081 26.12H70.681L66.681 32.392C64.985 35.016 64.665 35.784 64.665 36.264C64.665 36.712 64.921 37.032 65.529 37.032C66.745 37.032 67.961 35.944 70.169 32.456L70.937 31.24C71.033 31.176 71.161 31.176 71.257 31.24L70.489 32.456C68.281 35.944 66.905 37.32 65.561 37.32ZM58.969 36.04C58.969 36.648 59.289 37.032 59.801 37.032C60.825 37.032 62.265 35.56 64.313 32.392L65.785 30.12L68.249 26.408C67.929 26.184 67.481 26.056 66.841 26.056C64.729 26.056 63.225 27.72 61.369 30.504C59.961 32.584 58.969 34.728 58.969 36.04ZM73.0803 29.672C73.7843 28.584 74.2003 27.816 74.2003 27.24C74.2003 26.696 73.9763 26.408 73.1442 26.408H71.8322C71.8642 26.28 71.9282 26.184 71.9922 26.12H73.2722C74.2643 26.12 74.7123 26.568 74.7123 27.752V30.12H74.9363C76.9843 27.4 78.6163 25.832 80.0563 25.832C80.9843 25.832 81.2723 26.536 81.2723 27.464C81.2723 28.2 80.9843 29.288 80.6003 30.152H80.8563C82.8403 27.464 84.6323 25.832 86.0083 25.832C86.9683 25.832 87.3203 26.632 87.3203 27.848C87.3203 29.064 86.9683 30.024 85.6883 31.72L84.6963 33.032C83.3203 34.856 82.8403 35.656 82.8403 36.264C82.8403 36.776 83.1603 37.064 83.7043 37.064C85.2403 37.064 86.5522 35.176 88.3443 32.52L89.2083 31.24C89.3363 31.144 89.4643 31.144 89.5283 31.24L88.6643 32.52C87.0323 34.952 85.4323 37.32 83.6723 37.32C82.4563 37.32 82.1363 36.168 82.1363 35.176C82.1363 33.832 82.7443 32.456 84.0883 30.696L85.1443 29.32C86.1042 28.072 86.5522 27.304 86.5522 26.76C86.5522 26.376 86.3603 26.184 85.8803 26.184C84.3123 26.184 82.0083 28.68 79.3843 32.84L76.8243 37H74.5842L77.6883 32.072C79.1923 29.704 80.6003 27.528 80.6003 26.696C80.6003 26.344 80.4083 26.184 80.0243 26.184C78.4883 26.184 76.6003 28.232 73.9443 31.944L73.4002 32.808L70.6802 37H68.4402L73.0803 29.672ZM109.933 37.448C107.725 37.448 105.901 36.84 104.237 36.072C102.829 36.904 101.165 37.352 99.1175 37.352C95.6935 37.352 94.2215 36.136 94.2215 35.016C94.2215 34.088 95.1175 33.256 97.1335 33.256C99.3735 33.256 101.293 34.28 103.405 35.272C104.429 34.248 105.421 32.712 106.765 30.6C102.061 29.704 99.8535 26.984 99.8535 24.04C99.8535 19.88 104.141 15.016 113.485 15.016H125.517L125.325 15.336H118.893L112.717 25.192H116.237L117.037 23.816H117.453L115.373 27.336H114.957L116.045 25.512H112.525L109.261 30.696C107.853 32.936 106.445 34.696 104.685 35.816C106.253 36.488 107.981 37.032 109.997 37.032C113.901 37.032 115.917 35.272 117.645 32.552L118.477 31.24C118.605 31.176 118.733 31.176 118.797 31.24L117.965 32.552C116.429 34.984 114.509 37.448 109.933 37.448ZM94.5415 35.048C94.5415 35.944 95.9815 36.968 98.8935 36.968C100.749 36.968 101.965 36.552 103.085 35.56C101.069 34.568 99.2135 33.576 97.0375 33.576C95.2135 33.576 94.5415 34.408 94.5415 35.048ZM100.173 24.04C100.173 26.856 102.317 29.48 106.957 30.312L115.341 16.84L118.061 15.336H113.485C104.333 15.336 100.173 20.072 100.173 24.04ZM112.274 48.136C111.122 48.136 110.706 47.496 110.706 46.6C110.706 44.68 112.626 41.768 117.778 38.984L120.69 37.416L123.314 33.192H123.186C121.266 35.784 119.922 37 118.77 37C117.618 37 117.01 35.688 117.01 34.312C117.01 32.872 117.65 31.336 118.45 30.12C120.274 27.336 123.154 25.8 125.906 25.8C126.674 25.8 127.346 25.928 128.018 26.12H129.714L127.026 30.376L123.282 36.616C126.098 35.304 127.794 34.504 130.002 31.24C130.098 31.176 130.226 31.176 130.322 31.24C128.114 34.696 126.194 35.56 123.058 36.968L122.322 38.184C119.25 43.176 115.506 48.136 112.274 48.136ZM111.058 46.536C111.026 47.272 111.314 47.848 112.082 47.848C114.162 47.848 116.914 43.528 119.826 38.824L120.466 37.8L117.906 39.176C112.85 41.896 111.122 44.84 111.058 46.536ZM118.002 35.816C118.002 36.424 118.258 36.712 118.802 36.712C119.858 36.712 121.042 35.656 122.898 33.096C123.602 32.072 124.594 30.6 125.394 29.32L127.218 26.44C126.93 26.248 126.482 26.056 125.842 26.056C124.178 26.056 122.45 27.368 120.434 30.376C118.866 32.712 118.002 34.696 118.002 35.816ZM123.79 48.136C122.638 48.136 122.222 47.496 122.222 46.6C122.222 44.68 124.142 41.768 129.294 38.984L132.206 37.416L134.83 33.192H134.702C132.782 35.784 131.438 37 130.286 37C129.134 37 128.526 35.688 128.526 34.312C128.526 32.872 129.166 31.336 129.966 30.12C131.79 27.336 134.67 25.8 137.422 25.8C138.19 25.8 138.862 25.928 139.534 26.12H141.23L138.542 30.376L134.798 36.616C137.614 35.304 139.31 34.504 141.518 31.24C141.614 31.176 141.742 31.176 141.838 31.24C139.63 34.696 137.71 35.56 134.574 36.968L133.838 38.184C130.766 43.176 127.022 48.136 123.79 48.136ZM122.574 46.536C122.542 47.272 122.83 47.848 123.598 47.848C125.678 47.848 128.43 43.528 131.342 38.824L131.982 37.8L129.422 39.176C124.366 41.896 122.638 44.84 122.574 46.536ZM129.518 35.816C129.518 36.424 129.774 36.712 130.318 36.712C131.374 36.712 132.558 35.656 134.414 33.096C135.118 32.072 136.11 30.6 136.91 29.32L138.734 26.44C138.446 26.248 137.998 26.056 137.358 26.056C135.694 26.056 133.966 27.368 131.95 30.376C130.382 32.712 129.518 34.696 129.518 35.816ZM141.642 37.288C140.394 37.288 139.85 36.264 139.85 34.888C139.85 33.32 140.362 31.848 142.218 28.904L150.698 15.336H145.738L145.93 15.016H150.41C151.85 15.016 152.778 14.664 153.61 13.576H154.026L143.37 30.76C140.906 34.568 140.586 35.208 140.586 36.072C140.586 36.648 140.97 37.032 141.706 37.032C143.242 37.032 144.714 35.176 146.314 32.808L147.37 31.24C147.498 31.176 147.626 31.176 147.69 31.24L146.57 32.904C144.906 35.368 143.434 37.288 141.642 37.288ZM148.559 37.256C147.023 37.256 146.159 35.752 146.159 34.024C146.159 32.712 146.543 31.304 147.375 29.96C148.911 27.464 151.663 25.832 153.359 25.832C154.191 25.832 154.479 26.312 154.479 26.824C154.479 27.496 153.967 28.232 153.199 28.936C152.111 29.896 150.415 30.664 148.975 31.08C148.175 32.52 147.407 34.248 147.407 35.56C147.407 36.392 147.727 36.936 148.655 36.936C150.287 36.936 152.143 35.464 154.831 31.24C154.959 31.112 155.151 31.112 155.151 31.24C152.335 35.688 150.351 37.256 148.559 37.256ZM149.103 30.792C150.447 30.344 151.983 29.576 152.975 28.68C153.711 28.008 154.191 27.304 154.191 26.728C154.191 26.344 153.999 26.088 153.551 26.088C152.463 26.088 150.895 27.752 149.327 30.44L149.103 30.792ZM154.22 37.224C152.428 37.224 151.244 36.264 151.244 34.632C151.244 33.064 152.332 31.528 154.284 31.208C155.98 30.536 157.516 29.448 158.956 27.752C159.052 26.696 159.436 25.704 160.556 24.616L161.1 26.12L160.556 26.504C160.108 26.824 159.084 27.752 159.212 28.36C159.404 29.288 159.468 30.248 159.404 31.144H161.612C161.612 31.24 161.548 31.336 161.42 31.432H159.404C159.276 32.712 158.892 33.896 158.284 34.856C157.388 36.296 156.012 37.224 154.22 37.224ZM151.532 34.664C151.532 35.752 152.14 36.68 153.26 36.68C154.636 36.68 155.98 35.336 157.004 33.672C157.452 32.968 157.836 32.2 158.156 31.432H154.956C152.684 31.432 151.532 33.16 151.532 34.664ZM155.084 31.144H158.284C158.7 30.088 158.924 29.064 158.924 28.328V28.2C157.772 29.512 156.46 30.472 155.084 31.144ZM161.41 37.224C160.45 37.224 159.682 36.648 159.682 34.92C159.682 32.744 160.514 31.24 162.018 28.904L165.442 23.656L165.25 23.24H163.586L163.81 22.952H165.89L167.682 20.168C168.77 20.168 169.538 19.912 170.05 19.272H170.434L168.098 22.952H171.682L171.458 23.24H167.906L162.818 31.24C161.186 33.832 160.418 34.92 160.418 35.944C160.418 36.616 160.738 36.936 161.474 36.936C163.106 36.936 164.93 34.728 166.434 32.424L167.202 31.24C167.33 31.176 167.458 31.176 167.522 31.24L166.722 32.456C165.186 34.792 163.33 37.224 161.41 37.224ZM168.1 37.224C166.596 37.224 166.02 35.464 166.02 34.216C166.02 29.704 169.828 25.832 173.156 25.832H173.22C173.636 25.832 173.988 25.928 174.244 26.088L174.34 26.12H178.084C178.116 26.216 178.148 26.312 177.988 26.408H174.596C174.852 26.76 174.98 27.272 174.98 27.912C174.98 29.288 174.404 31.016 173.412 32.68C172.036 34.984 169.828 37.224 168.1 37.224ZM168.1 36.936C169.668 36.936 171.524 34.696 172.868 32.36C173.86 30.632 174.596 28.904 174.596 27.624C174.596 27.08 174.468 26.664 174.212 26.408H172.644C171.588 27.048 170.244 28.616 169.124 30.376C167.972 32.232 167.076 34.312 167.076 35.688C167.076 36.456 167.332 36.936 168.1 36.936ZM182.545 37.32C181.329 37.32 181.009 36.168 181.009 35.176C181.009 33.832 181.617 32.456 182.961 30.696L184.017 29.32C184.977 28.072 185.425 27.304 185.425 26.76C185.425 26.408 185.265 26.184 184.785 26.184C183.185 26.184 180.817 28.584 178.129 32.552L177.969 32.808L175.249 37H173.009L177.649 29.672C178.353 28.584 178.769 27.816 178.769 27.24C178.769 26.696 178.545 26.408 177.713 26.408H176.401C176.433 26.28 176.497 26.184 176.561 26.12H177.841C178.833 26.12 179.281 26.568 179.281 27.752V30.12H179.505C181.585 27.432 183.441 25.832 184.881 25.832C185.841 25.832 186.193 26.632 186.193 27.848C186.193 29.064 185.841 30.024 184.561 31.72L183.569 33.032C182.193 34.856 181.713 35.656 181.713 36.264C181.713 36.776 182.033 37.064 182.577 37.064C184.113 37.064 185.425 35.176 187.217 32.52L188.081 31.24C188.209 31.144 188.337 31.144 188.401 31.24L187.537 32.52C185.905 34.952 184.305 37.32 182.545 37.32Z" fill="black"/>
</g>
<defs>
<clipPath id="clip0_134_30">
<rect width="200" height="200" fill="white"/>
</clipPath>
</defs>
</svg>
